<svg xmlns="http://www.w3.org/2000/svg" xmlns:svg="http://www.w3.org/2000/svg" id="svg2" width="640" height="640" version="1.1"><metadata id="metadata7"/><g id="layer1" transform="translate(-40,-40)"><path style="opacity:1;fill:#333;fill-opacity:1;stroke:#46335c;stroke-width:.20999999999999999;stroke-linecap:round;stroke-linejoin:round;stroke-miterlimit:4;stroke-opacity:1;stroke-dasharray:none" id="rect2996" d="M 187 230 C 175 230 165 240 165 252 L 165 300 L 165 408 C 165 420 175 430 187 430 L 463 430 C 475 430 485 420 485 408 L 485 300 L 485 252 C 485 240 475 230 463 230 L 187 230 z M 360 256 A 70 72.5 0 0 1 430 328 A 70 72.5 0 0 1 360 400 A 70 72.5 0 0 1 290 328 A 70 72.5 0 0 1 360 256 z" transform="translate(40,40)"/><circle style="opacity:1;fill:#333;fill-opacity:1;stroke:none;stroke-width:33.33;stroke-linecap:butt;stroke-linejoin:round;stroke-miterlimit:4;stroke-dasharray:none;stroke-opacity:1" id="path3770" cx="401" cy="369" r="41"/><path style="fill:#333;stroke:#333;stroke-width:1px;stroke-linecap:butt;stroke-linejoin:round;stroke-opacity:1;fill-opacity:1" id="path3780" d="m 205,225 5,-10 20,0 5,10 -30,0" transform="translate(40,40)"/><path style="fill:#333;stroke:#333;stroke-width:1px;stroke-linecap:butt;stroke-linejoin:round;stroke-opacity:1;fill-opacity:1;opacity:1" id="path3782" d="M 285 200 L 270 225 L 376 225 L 361 200 L 285 200 z M 310 205 L 337 205 L 337 218 L 310 218 L 310 205 z" transform="translate(40,40)"/><path id="path2996" d="m 455,265 5,-10 20,0 5,10 -30,0" style="fill:#333;fill-opacity:1;stroke:#333;stroke-width:1px;stroke-linecap:butt;stroke-linejoin:round;stroke-opacity:1"/></g></svg>