<svg xmlns="http://www.w3.org/2000/svg" xmlns:osb="http://www.openswatchbook.org/uri/2009/osb" xmlns:svg="http://www.w3.org/2000/svg" xmlns:xlink="http://www.w3.org/1999/xlink" width="64" height="64" version="1.1"><defs><linearGradient osb:paint="solid"><stop style="stop-color:#333;stop-opacity:1" offset="0"/></linearGradient></defs><metadata/><g transform="translate(0,-988.4)"><path style="fill:#333;fill-opacity:1;stroke:none" d="m 10.8 1018 c -0.5 0 -0.8 1 -0.8 1 l 0 22 c 0 1 0.4 1 0.8 1 l 42.3 0 c 0.5 0 0.8 0 0.8 -1 l 0 -22 c 0 0 -0.4 -1 -0.8 -1 l -16.1 0 0 5 c 0 0 -0.4 1 -0.8 1 l -8.4 0 c -0.5 0 -0.8 -1 -0.8 -1 l 0 -5 -16.1 0 z"/><rect style="fill:#333;fill-opacity:1;stroke:none" width="8" height="24.5" x="28" y="998.4" ry=".8"/></g></svg>