<svg xmlns="http://www.w3.org/2000/svg" xmlns:svg="http://www.w3.org/2000/svg" xmlns:xlink="http://www.w3.org/1999/xlink" id="svg2" width="64" height="48" version="1.1" viewBox="0 0 64 48"><metadata id="metadata7"/><g id="layer1"><rect style="display:inline;fill:#b9dbff;fill-opacity:1;stroke:none;stroke-opacity:1" id="rect4190" width="64" height="48" x="0" y="60" transform="translate(0,-60)"/></g><g id="layer2" transform="translate(0,-60)" style="display:inline"><g id="g4258" transform="translate(-87.738638,-3.9601563)"><path id="path4256" d="M 30.000002,37.999998 0,108 l 60.000004,0 z" style="fill:#5d2f60;fill-opacity:1;fill-rule:evenodd;stroke:none;stroke-width:1px;stroke-linecap:butt;stroke-linejoin:miter;stroke-opacity:1"/><path id="path4252" d="M 0,108 30.000002,37.999998 10.000001,108 Z" style="fill:#451448;fill-opacity:1;fill-rule:evenodd;stroke:none;stroke-width:1px;stroke-linecap:butt;stroke-linejoin:miter;stroke-opacity:1"/></g><g id="use4266" transform="translate(24.014727,29.945437)" style="fill:none;fill-opacity:1;stroke:none;stroke-opacity:1"><path style="fill:#5d2f60;fill-opacity:1;fill-rule:evenodd;stroke:none;stroke-width:1px;stroke-linecap:butt;stroke-linejoin:miter;stroke-opacity:1" id="path4186" d="M 30.000002,37.999998 0,108 l 60.000004,0 z"/><path style="fill:#451448;fill-opacity:1;fill-rule:evenodd;stroke:none;stroke-width:1px;stroke-linecap:butt;stroke-linejoin:miter;stroke-opacity:1" id="path4188" d="M 0,108 30.000002,37.999998 10.000001,108 Z"/></g><use id="use4359" width="100%" height="100%" x="0" y="0" transform="translate(10.884776,4.581481)" xlink:href="#use4357"/><use id="use4357" width="100%" height="100%" x="0" y="0" transform="translate(69.771345,31.878681)" xlink:href="#g4258"/></g><g id="layer3" transform="translate(0,-60)" style="display:inline"><path style="fill:#78bb37;fill-opacity:1;fill-rule:evenodd;stroke:none;stroke-width:1px;stroke-linecap:butt;stroke-linejoin:miter;stroke-opacity:1" id="path4363" d="m -20.449747,93.680191 c 0,0 88.034796,-14.142134 124.097237,39.244419 l -124.097237,1e-5 z"/></g><g id="layer4" transform="translate(0,-60)" style="display:inline"><g style="display:inline" id="use4213" transform="matrix(0.11459025,0,0,0.0953728,-244.11232,5.1669697)"><path style="fill:#009d25;fill-opacity:1;fill-rule:evenodd;stroke:none;stroke-width:1px;stroke-linecap:butt;stroke-linejoin:miter;stroke-opacity:1" id="path4223" d="m 1631.9485,901.45342 30.9086,-126.23419 31.4285,125.71429 z"/><path id="path4225" d="m 1662.8589,775.21645 -18.9303,126.16351 -12.0536,0 z" style="fill:#006919;fill-opacity:1;fill-rule:evenodd;stroke:none;stroke-width:1px;stroke-linecap:butt;stroke-linejoin:miter;stroke-opacity:1"/></g><use id="use4339" width="100%" height="100%" x="0" y="0" transform="translate(74.268237,7.5666493)" xlink:href="#use4213"/><use id="use4341" width="100%" height="100%" x="0" y="0" transform="translate(-7.9860496,0.06827838)" xlink:href="#use4339"/><use id="use4343" width="100%" height="100%" x="0" y="0" transform="translate(3.8762204,8.2146484)" xlink:href="#use4341"/><use id="use4345" width="100%" height="100%" x="0" y="0" transform="translate(7.9178904,-2.9785516)" xlink:href="#use4343"/><use id="use4365" width="100%" height="100%" x="0" y="0" transform="translate(-4.3310296,5.8336284)" xlink:href="#use4341"/></g></svg>