<svg xmlns="http://www.w3.org/2000/svg" viewBox="0 0 192 108"><path fill="#0a2" d="m18.5 93 3.6-12 4 12z"/><path fill="#072" d="m22 81-2 12-1.5 0z"/><path fill="#0a2" d="m25.5 89.3 3.6-12 4 12z"/><path fill="#072" d="m29 77.3-2 12-1.5 0z"/><path fill="#0a2" d="m35.3 90.3 3.6-12 4 12z"/><path fill="#072" d="m38.8 78.3-2 12-1.5 0z"/><path fill="#0a2" d="m29.8 94.5 3.6-12 4 12z"/><path fill="#072" d="m33.3 82.5-2 12-1.5 0z"/><path fill="#636" d="m196.9 27.8-30 70 60 0z"/><path fill="#414" d="m166.9 97.8 30-70-20 70z"/><path fill="#636" d="m127 71.4-30 70 60 0z"/><path fill="#414" d="m97 141.4 30-70-20 70z"/><path fill="#636" d="m168.2 47.4-30 70 60 0z"/><path fill="#414" d="m138.2 117.4 30-70-20 70z"/><path fill="#636" d="m149.2 40.3-30 70 60 0z"/><path fill="#414" d="m119.2 110.3 30-70-20 70z"/><path fill="#636" d="m32.5 45-30 70 60 0z"/><path fill="#414" d="m2.5 115 30-70-20 70z"/><path fill="#636" d="m14 31.9-30 70 60 0z"/><path fill="#414" d="m-15.9 101.9 30-70-20 70z"/><path fill="#7b3" d="m-5 76.2c0 0 88-14.2 124 39.2l-124 0z"/><path fill="#7d3" d="m206 78.7c0 0-89-21.4-135 36.3 69 0.4 101.8 3 134.4 3z"/><path fill="#0a2" d="m165.1 84 3.5-12 3.6 12z"/><path fill="#072" d="m168.6 72-2 12-1.5 0z"/><path fill="#0a2" d="m157.1 84 3.5-12 3.6 12z"/><path fill="#072" d="m160.7 72-2 12-1.5 0z"/><path fill="#0a2" d="m161 92.3 3.5-12 3.6 12z"/><path fill="#072" d="m164.5 80.3-2 12-1.5 0z"/><path fill="#0a2" d="m169 89.3 3.5-12 3.6 12z"/><path fill="#072" d="m172.5 77.3-2 12-1.5 0z"/><path fill="#0a2" d="m152.8 89.9 3.5-12 3.6 12z"/><path fill="#072" d="m156.3 77.9-2 12-1.5 0z"/><path fill="#0a2" d="m16.4 77.3 3.5-12 3.6 12z"/><path fill="#072" d="m20 65.3-2 12-1.5 0z"/><path fill="#0a2" d="m26 78.4 3.5-12 3.6 12z"/><path fill="#072" d="m29.5 66.4-2 12-1.5 0z"/><path fill="#0a2" d="m21 83 3.5-12 3.6 12z"/><path fill="#072" d="m24.5 71-2 12-1.5 0z"/><path fill="#0a2" d="m11 80.2 3.5-12 3.6 12z"/><path fill="#072" d="m14.5 68.2-2 12-1.5 0z"/></svg>