<svg xmlns="http://www.w3.org/2000/svg" xmlns:svg="http://www.w3.org/2000/svg" xmlns:xlink="http://www.w3.org/1999/xlink" id="svg2" width="192" height="108" version="1.1" viewBox="0 0 192 108"><metadata id="metadata7"/><g id="layer1" transform="translate(0,-944.36228)" style="display:inline"><g id="use4231" transform="matrix(0.11459025,0,0,0.0953728,-168.48509,951.42509)"><path id="path4319" d="m 1631.9485,901.45342 30.9086,-126.23419 31.4285,125.71429 z" style="fill:#009d25;fill-opacity:1;fill-rule:evenodd;stroke:none;stroke-width:1px;stroke-linecap:butt;stroke-linejoin:miter;stroke-opacity:1"/><path style="fill:#006919;fill-opacity:1;fill-rule:evenodd;stroke:none;stroke-width:1px;stroke-linecap:butt;stroke-linejoin:miter;stroke-opacity:1" id="path4321" d="m 1662.8589,775.21645 -18.9303,126.16351 -12.0536,0 z"/></g><use id="use4233" width="100%" height="100%" x="0" y="0" transform="translate(7.0000004,-3.7500002)" xlink:href="#use4231"/><use id="use4237" width="100%" height="100%" x="0" y="0" transform="translate(5.5000003,-4.2500003)" xlink:href="#use4235"/><use id="use4235" width="100%" height="100%" x="0" y="0" transform="translate(4.2500003,5.2500003)" xlink:href="#use4233"/></g><g id="layer2" style="display:inline"><use id="use4268" width="100%" height="100%" x="0" y="0" transform="translate(69.826799,-43.663846)" xlink:href="#use4266"/><g id="g4258" transform="translate(-77.839143,-29.769554)"><path id="path4256" d="M 30.000002,37.999998 0,108 l 60.000004,0 z" style="fill:#5d2f60;fill-opacity:1;fill-rule:evenodd;stroke:none;stroke-width:1px;stroke-linecap:butt;stroke-linejoin:miter;stroke-opacity:1"/><path id="path4252" d="M 0,108 30.000002,37.999998 10.000001,108 Z" style="fill:#451448;fill-opacity:1;fill-rule:evenodd;stroke:none;stroke-width:1px;stroke-linecap:butt;stroke-linejoin:miter;stroke-opacity:1"/></g><use id="use4266" width="100%" height="100%" x="0" y="0" transform="translate(-22.097088,31.112701)" xlink:href="#use4262" style="fill:none;fill-opacity:1;stroke:none;stroke-opacity:1"/><use id="use4355" width="100%" height="100%" x="0" y="0" transform="translate(216.02113,39.244428)" xlink:href="#g4258"/><use id="use4262" width="100%" height="100%" x="0" y="0" transform="translate(196.95096,32.102292)" xlink:href="#g4258"/><use id="use4359" width="100%" height="100%" x="0" y="0" transform="translate(18.384777,13.081476)" xlink:href="#use4357"/><use id="use4357" width="100%" height="100%" x="0" y="0" transform="translate(61.871847,23.688079)" xlink:href="#g4258"/></g><g id="layer3" style="display:inline"><path style="fill:#78bb37;fill-opacity:1;fill-rule:evenodd;stroke:none;stroke-width:1px;stroke-linecap:butt;stroke-linejoin:miter;stroke-opacity:1" id="path4363" d="m -4.9497467,76.180191 c 0,0 88.0347937,-14.142134 124.0972367,39.244419 l -124.0972368,1e-5 z"/><path style="display:inline;fill:#78d437;fill-opacity:1;fill-rule:evenodd;stroke:none;stroke-width:1px;stroke-linecap:butt;stroke-linejoin:miter;stroke-opacity:1" id="path4270" d="m 206.12162,78.6551 c 0,0 -89.05439,-21.318503 -135.057388,36.41614 68.872818,0.3187 101.689108,2.82836 134.350288,2.82836 z"/></g><g id="layer4" style="display:inline"><g style="display:inline" id="use4213" transform="matrix(0.11459025,0,0,0.0953728,-234.21282,-20.642428)"><path style="fill:#009d25;fill-opacity:1;fill-rule:evenodd;stroke:none;stroke-width:1px;stroke-linecap:butt;stroke-linejoin:miter;stroke-opacity:1" id="path4223" d="m 1631.9485,901.45342 30.9086,-126.23419 31.4285,125.71429 z"/><path id="path4225" d="m 1662.8589,775.21645 -18.9303,126.16351 -12.0536,0 z" style="fill:#006919;fill-opacity:1;fill-rule:evenodd;stroke:none;stroke-width:1px;stroke-linecap:butt;stroke-linejoin:miter;stroke-opacity:1"/></g><use id="use4339" width="100%" height="100%" x="0" y="0" transform="translate(212.33872,18.668787)" xlink:href="#use4213"/><use id="use4341" width="100%" height="100%" x="0" y="0" transform="translate(-7.9860521,0.06828144)" xlink:href="#use4339"/><use id="use4343" width="100%" height="100%" x="0" y="0" transform="translate(3.8762173,8.2146523)" xlink:href="#use4341"/><use id="use4345" width="100%" height="100%" x="0" y="0" transform="translate(7.9178933,-2.9785533)" xlink:href="#use4343"/><use id="use4365" width="100%" height="100%" x="0" y="0" transform="translate(-4.3310281,5.8336314)" xlink:href="#use4341"/><use id="use4367" width="100%" height="100%" x="0" y="0" transform="translate(63.639614,12.020816)" xlink:href="#use4213"/><use id="use4369" width="100%" height="100%" x="0" y="0" transform="translate(73.185557,13.081476)" xlink:href="#use4213"/><use id="use4371" width="100%" height="100%" x="0" y="0" transform="translate(68.235808,17.677671)" xlink:href="#use4213"/><use id="use4373" width="100%" height="100%" x="0" y="0" transform="translate(58.159536,14.849243)" xlink:href="#use4213"/></g></svg>